<svg id="Camada_1" data-name="Camada 1" xmlns="http://www.w3.org/2000/svg" viewBox="0 0 300 170.28"><defs><style>.cls-1{fill:#fff;}</style></defs><title>menuBarSVG</title><g id="MenuBars"><path class="cls-1" d="M503.07,481.46c40.63,0,81.26-.39,121.88.28,12.5.21,26.25,3.06,24.79,20.28-1.11,13.11-12.73,16.42-23.33,16.47q-127.18.54-254.35-.19c-10.5-.07-22-3.9-22.21-17.46-.27-17.27,13.84-19,26-19.15C418.27,481,460.67,481.43,503.07,481.46Z" transform="translate(-349.85 -415)"/><path class="cls-1" d="M499.86,447.81c-42.35,0-84.7.21-127-.14-10.67-.09-22.8-1.78-22.58-15.94.2-13.38,11.27-16.6,22.52-16.62q127-.21,254.08,0c11.25,0,22.34,3.21,22.59,16.56.27,14.17-11.85,15.9-22.54,16C584.55,448,542.2,447.81,499.86,447.81Z" transform="translate(-349.85 -415)"/><path class="cls-1" d="M501,552.38c40.58,0,81.17-.34,121.75.14,11.82.13,27.28-1.3,26.38,17.12-.65,13.33-12.46,15.54-23.45,15.56q-127,.18-254.08-.09c-11.44,0-21.85-4.11-21.13-17.66.76-14.19,13.09-14.79,23.49-14.88C416.31,552.21,458.66,552.42,501,552.38Z" transform="translate(-349.85 -415)"/></g></svg>