<svg width="200" height="212" viewBox="0 0 200 212" fill="none" xmlns="http://www.w3.org/2000/svg">
<path fill-rule="evenodd" clip-rule="evenodd" d="M70.4857 16.4547C56.8794 20.658 44.2412 27.746 33.4775 37.3359C16.9906 52.025 5.82914 71.7581 1.73447 93.4566C-2.36021 115.155 0.842161 137.599 10.842 157.286C20.8418 176.974 37.0767 192.798 57.014 202.29C63.8933 205.565 71.0799 208.023 78.4295 209.646L63 159.5L75.4944 129.305C74.6621 128.127 73.9122 126.884 73.2527 125.586C70.2527 119.68 69.292 112.947 70.5204 106.437C70.9388 104.22 71.6032 102.071 72.4928 100.027L56.5 70L70.4857 16.4547ZM75.7087 106.065C75.2455 107.968 75 109.955 75 112C75 116.19 76.0306 120.139 77.8522 123.607L81 116L75.7087 106.065ZM120.979 125.603L116.235 92.9879C121.599 97.5732 125 104.389 125 112C125 117.017 123.522 121.688 120.979 125.603ZM121.971 132.427C122.29 132.085 122.6 131.734 122.904 131.376C127.151 126.356 129.63 120.08 129.962 113.514L129.962 113.514C130.227 108.256 129.105 103.021 126.707 98.3346C124.358 93.744 120.866 89.8379 116.57 86.9916C116.481 86.9321 116.39 86.873 116.3 86.8145C115.951 86.5887 115.598 86.3706 115.241 86.1601L115 84.5L145.719 23.0628C148.661 24.5755 151.537 26.2384 154.333 28.0483C154.635 28.2434 154.935 28.4401 155.235 28.6386C169.554 38.1263 181.193 51.1464 189.023 66.4488C196.943 81.9279 200.689 99.2022 199.896 116.566L199.896 116.566C198.888 138.625 190.607 159.729 176.345 176.587C162.083 193.445 142.642 205.109 121.056 209.758C110.585 212.014 99.8941 212.557 89.3852 211.435L98 173L123 139.5L121.971 132.427ZM183.751 69.3265C190.486 82.5433 193.996 97.1664 193.996 112H137.599C137.599 106.067 136.194 100.217 133.501 94.9306C130.807 89.6438 126.9 85.0697 122.1 81.5821L155.25 35.9552C167.25 44.6742 177.017 56.1096 183.751 69.3265Z" fill="#FFD201"/>
<path d="M108.186 35.6946L78.9636 63.4744L87.6652 0.987842L108.186 35.6946Z" fill="#FFD201"/>
<path d="M96.9701 69.6113L111.894 61.0096L99.8447 86.595L96.9701 69.6113Z" fill="#FFD201"/>
<path d="M98.7101 100.927L97.7011 118.123L82.9387 94.0006L98.7101 100.927Z" fill="#FFD201"/>
</svg>
