<svg width="563" height="605" viewBox="0 0 563 605" fill="none" xmlns="http://www.w3.org/2000/svg">
<path d="M59.0092 189.508C59.0092 182.025 52.9515 175.959 45.479 175.959C38.0064 175.959 31.9487 182.025 31.9487 189.508V242.392C31.9487 249.875 38.0064 255.941 45.479 255.941C52.9515 255.941 59.0092 249.875 59.0092 242.392V189.508Z" fill="#7301FE"/>
<path d="M105.934 139.52C105.934 132.037 99.8763 125.971 92.4038 125.971C84.9312 125.971 78.8735 132.037 78.8735 139.52V292.38C78.8735 299.863 84.9312 305.929 92.4038 305.929C99.8763 305.929 105.934 299.863 105.934 292.38V139.52Z" fill="#7301FE"/>
<path d="M152.859 79.5335C152.859 72.0507 146.801 65.9847 139.329 65.9847C131.856 65.9847 125.798 72.0507 125.798 79.5335V352.367C125.798 359.849 131.856 365.915 139.329 365.915C146.801 365.915 152.859 359.849 152.859 352.367V79.5335Z" fill="#7301FE"/>
<path d="M200.096 124.523C200.096 117.04 194.038 110.974 186.565 110.974C179.093 110.974 173.035 117.04 173.035 124.523V307.377C173.035 314.86 179.093 320.926 186.565 320.926C194.038 320.926 200.096 314.86 200.096 307.377V124.523Z" fill="#7301FE"/>
<path d="M247.707 199.506C247.707 192.023 241.649 185.957 234.177 185.957C226.704 185.957 220.646 192.023 220.646 199.506V232.394C220.646 239.877 226.704 245.943 234.177 245.943C241.649 245.943 247.707 239.877 247.707 232.394V199.506Z" fill="#7301FE"/>
<path d="M294.632 179.51C294.632 172.028 288.575 165.962 281.102 165.962C273.629 165.962 267.572 172.028 267.572 179.51V252.39C267.572 259.872 273.629 265.938 281.102 265.938C288.575 265.938 294.632 259.872 294.632 252.39V179.51Z" fill="#7301FE"/>
<path d="M341.557 89.5312C341.557 82.0484 335.499 75.9824 328.027 75.9824C320.554 75.9824 314.497 82.0484 314.497 89.5312V342.369C314.497 349.852 320.554 355.918 328.027 355.918C335.499 355.918 341.557 349.852 341.557 342.369V89.5312Z" fill="#7301FE"/>
<path d="M387.483 29.5451C387.483 22.0623 381.426 15.9963 373.953 15.9963C366.481 15.9963 360.423 22.0623 360.423 29.5451V402.355C360.423 409.838 366.481 415.904 373.953 415.904C381.426 415.904 387.483 409.838 387.483 402.355V29.5451Z" fill="#7301FE"/>
<path d="M434.408 104.528C434.408 97.0449 428.35 90.9789 420.878 90.9789C413.405 90.9789 407.348 97.0449 407.348 104.528V327.372C407.348 334.855 413.405 340.921 420.878 340.921C428.35 340.921 434.408 334.855 434.408 327.372V104.528Z" fill="#7301FE"/>
<path d="M482.266 154.516C482.266 147.033 476.208 140.967 468.735 140.967C461.263 140.967 455.205 147.033 455.205 154.516V277.384C455.205 284.867 461.263 290.933 468.735 290.933C476.208 290.933 482.266 284.867 482.266 277.384V154.516Z" fill="#7301FE"/>
<path d="M529.256 199.506C529.256 192.023 523.199 185.957 515.726 185.957C508.253 185.957 502.196 192.023 502.196 199.506V232.394C502.196 239.877 508.253 245.943 515.726 245.943C523.199 245.943 529.256 239.877 529.256 232.394V199.506Z" fill="#7301FE"/>
<path d="M529.205 435.899H456.255C435.459 465.054 370.828 523.365 278.683 523.365C186.537 523.365 127.666 465.054 109.748 435.899H32.0005C49.5977 486.841 123.57 588.725 278.683 588.725C433.795 588.725 510.327 486.841 529.205 435.899Z" fill="#7301FE"/>
</svg>
