<svg width="563" height="605" viewBox="0 0 563 605" fill="none" xmlns="http://www.w3.org/2000/svg">
<rect x="32" y="176" width="27.1038" height="80" rx="13.5519" fill="#FFD201"/>
<rect x="79" y="126" width="27.1038" height="180" rx="13.5519" fill="#FFD201"/>
<rect x="126" y="66" width="27.1038" height="300" rx="13.5519" fill="#FFD201"/>
<rect x="173.312" y="111" width="27.1038" height="210" rx="13.5519" fill="#FFD201"/>
<rect x="221" y="186" width="27.1038" height="60" rx="13.5519" fill="#FFD201"/>
<rect x="268" y="166" width="27.1038" height="100" rx="13.5519" fill="#FFD201"/>
<rect x="315" y="76" width="27.1038" height="280" rx="13.5519" fill="#FFD201"/>
<rect x="361" y="16" width="27.1038" height="400" rx="13.5519" fill="#FFD201"/>
<rect x="408" y="91" width="27.1038" height="250" rx="13.5519" fill="#FFD201"/>
<rect x="455.934" y="141" width="27.1038" height="150" rx="13.5519" fill="#FFD201"/>
<rect x="503" y="186" width="27.1038" height="60" rx="13.5519" fill="#FFD201"/>
<path d="M530.052 436H456.986C436.156 465.162 371.422 523.486 279.129 523.486C186.836 523.486 127.87 465.162 109.924 436H32.0518C49.6772 486.954 123.768 588.861 279.129 588.861C434.49 588.861 511.144 486.954 530.052 436Z" fill="#FFD201"/>
</svg>
