<svg width="774" height="681" viewBox="0 0 774 681" fill="none" xmlns="http://www.w3.org/2000/svg">
<path d="M415 601H377C366.167 616.167 332.5 646.5 284.5 646.5C236.5 646.5 205.833 616.167 196.5 601H156C165.167 627.5 203.7 680.5 284.5 680.5C365.3 680.5 405.167 627.5 415 601Z" fill="#7301FE"/>
<rect x="137.948" y="176" width="27.1038" height="80" rx="13.5519" fill="#7301FE"/>
<rect x="184.948" y="126" width="27.1038" height="180" rx="13.5519" fill="#7301FE"/>
<rect x="231.948" y="66" width="27.1038" height="300" rx="13.5519" fill="#7301FE"/>
<rect x="279.26" y="111" width="27.1038" height="210" rx="13.5519" fill="#7301FE"/>
<rect x="326.948" y="186" width="27.1038" height="60" rx="13.5519" fill="#7301FE"/>
<rect x="373.948" y="166" width="27.1038" height="100" rx="13.5519" fill="#7301FE"/>
<rect x="420.948" y="76" width="27.1038" height="280" rx="13.5519" fill="#7301FE"/>
<rect x="466.948" y="16" width="27.1038" height="400" rx="13.5519" fill="#7301FE"/>
<rect x="513.948" y="91" width="27.1038" height="250" rx="13.5519" fill="#7301FE"/>
<rect x="561.882" y="141" width="27.1038" height="150" rx="13.5519" fill="#7301FE"/>
<rect x="608.948" y="186" width="27.1038" height="60" rx="13.5519" fill="#7301FE"/>
<path d="M50.3 479.925C50.4 479.025 50.75 478.25 51.35 477.6C51.95 476.95 52.8 476.625 53.9 476.625H79.85C81.7 476.625 82.9 477.575 83.45 479.475L103.85 547.575L124.4 479.475C125.1 477.575 126.375 476.625 128.225 476.625H153.875C154.775 476.625 155.575 476.95 156.275 477.6C157.025 478.2 157.45 478.975 157.55 479.925C159.3 497.525 161.075 515 162.875 532.35C164.725 549.65 166.525 567.1 168.275 584.7V585.075C168.275 587.025 167.175 588 164.975 588H143.75C141.45 588 140.25 586.9 140.15 584.7L133.625 526.725L116.75 585.075C116.65 585.575 116.275 586.175 115.625 586.875C115.025 587.575 114.425 587.925 113.825 587.925H94.1C93.5 587.925 92.85 587.6 92.15 586.95C91.5 586.25 91.15 585.625 91.1 585.075L74.225 526.875L67.7 584.7C67.6 586.9 66.375 588 64.025 588H42.8C40.65 588 39.575 586.9 39.575 584.7L50.3 479.925ZM177.528 540.45C177.528 535.85 178.103 531.425 179.253 527.175C180.453 522.925 182.103 519 184.203 515.4C186.353 511.75 188.903 508.45 191.853 505.5C194.853 502.5 198.178 499.95 201.828 497.85C205.478 495.75 209.403 494.125 213.603 492.975C217.853 491.825 222.278 491.25 226.878 491.25C233.678 491.25 240.053 492.525 246.003 495.075C252.003 497.575 257.203 501.05 261.603 505.5C266.053 509.9 269.553 515.1 272.103 521.1C274.703 527.05 276.003 533.5 276.003 540.45C276.003 545.05 275.403 549.475 274.203 553.725C273.053 557.925 271.403 561.85 269.253 565.5C267.153 569.15 264.603 572.475 261.603 575.475C258.653 578.425 255.353 580.975 251.703 583.125C248.053 585.225 244.128 586.85 239.928 588C235.778 589.15 231.428 589.725 226.878 589.725C222.278 589.725 217.853 589.15 213.603 588C209.403 586.85 205.478 585.225 201.828 583.125C198.178 580.975 194.853 578.425 191.853 575.475C188.903 572.475 186.353 569.15 184.203 565.5C182.103 561.85 180.453 557.925 179.253 553.725C178.103 549.475 177.528 545.05 177.528 540.45ZM204.903 540.45C204.903 543.75 205.403 546.85 206.403 549.75C207.453 552.6 208.903 555.075 210.753 557.175C212.653 559.275 214.928 560.95 217.578 562.2C220.278 563.4 223.303 564 226.653 564C229.903 564 232.828 563.4 235.428 562.2C238.078 560.95 240.303 559.275 242.103 557.175C243.953 555.075 245.353 552.6 246.303 549.75C247.303 546.85 247.803 543.75 247.803 540.45C247.803 537.25 247.303 534.2 246.303 531.3C245.353 528.4 243.953 525.85 242.103 523.65C240.303 521.45 238.078 519.725 235.428 518.475C232.828 517.175 229.903 516.525 226.653 516.525C223.303 516.525 220.278 517.175 217.578 518.475C214.928 519.725 212.653 521.45 210.753 523.65C208.903 525.85 207.453 528.4 206.403 531.3C205.403 534.2 204.903 537.25 204.903 540.45ZM287.977 540.45C287.977 535.85 288.552 531.425 289.702 527.175C290.902 522.925 292.552 519 294.652 515.4C296.802 511.75 299.352 508.45 302.302 505.5C305.302 502.5 308.627 499.95 312.277 497.85C315.927 495.75 319.852 494.125 324.052 492.975C328.302 491.825 332.727 491.25 337.327 491.25C344.127 491.25 350.502 492.525 356.452 495.075C362.452 497.575 367.652 501.05 372.052 505.5C376.502 509.9 380.002 515.1 382.552 521.1C385.152 527.05 386.452 533.5 386.452 540.45C386.452 545.05 385.852 549.475 384.652 553.725C383.502 557.925 381.852 561.85 379.702 565.5C377.602 569.15 375.052 572.475 372.052 575.475C369.102 578.425 365.802 580.975 362.152 583.125C358.502 585.225 354.577 586.85 350.377 588C346.227 589.15 341.877 589.725 337.327 589.725C332.727 589.725 328.302 589.15 324.052 588C319.852 586.85 315.927 585.225 312.277 583.125C308.627 580.975 305.302 578.425 302.302 575.475C299.352 572.475 296.802 569.15 294.652 565.5C292.552 561.85 290.902 557.925 289.702 553.725C288.552 549.475 287.977 545.05 287.977 540.45ZM315.352 540.45C315.352 543.75 315.852 546.85 316.852 549.75C317.902 552.6 319.352 555.075 321.202 557.175C323.102 559.275 325.377 560.95 328.027 562.2C330.727 563.4 333.752 564 337.102 564C340.352 564 343.277 563.4 345.877 562.2C348.527 560.95 350.752 559.275 352.552 557.175C354.402 555.075 355.802 552.6 356.752 549.75C357.752 546.85 358.252 543.75 358.252 540.45C358.252 537.25 357.752 534.2 356.752 531.3C355.802 528.4 354.402 525.85 352.552 523.65C350.752 521.45 348.527 519.725 345.877 518.475C343.277 517.175 340.352 516.525 337.102 516.525C333.752 516.525 330.727 517.175 328.027 518.475C325.377 519.725 323.102 521.45 321.202 523.65C319.352 525.85 317.902 528.4 316.852 531.3C315.852 534.2 315.352 537.25 315.352 540.45ZM469.227 578.625C467.877 579.975 466.327 581.325 464.577 582.675C462.877 583.975 461.002 585.15 458.952 586.2C456.952 587.25 454.777 588.1 452.427 588.75C450.127 589.4 447.677 589.725 445.077 589.725C438.277 589.725 432.002 588.45 426.252 585.9C420.552 583.35 415.627 579.875 411.477 575.475C407.377 571.025 404.152 565.8 401.802 559.8C399.502 553.8 398.352 547.35 398.352 540.45C398.352 533.5 399.502 527.05 401.802 521.1C404.152 515.1 407.377 509.9 411.477 505.5C415.627 501.05 420.552 497.575 426.252 495.075C432.002 492.525 438.277 491.25 445.077 491.25C447.827 491.25 450.327 491.5 452.577 492C454.877 492.45 456.952 493.125 458.802 494.025C460.702 494.925 462.427 496 463.977 497.25C465.577 498.5 467.077 499.875 468.477 501.375V470.1C468.477 468.5 468.952 467.15 469.902 466.05C470.902 464.95 472.377 464.4 474.327 464.4H491.202C491.852 464.4 492.527 464.55 493.227 464.85C493.977 465.1 494.652 465.475 495.252 465.975C495.852 466.475 496.327 467.075 496.677 467.775C497.077 468.475 497.277 469.25 497.277 470.1V582.225C497.277 586.075 495.252 588 491.202 588H476.502C475.502 588 474.727 587.875 474.177 587.625C473.627 587.375 473.152 587.025 472.752 586.575C472.402 586.075 472.077 585.475 471.777 584.775C471.477 584.025 471.102 583.175 470.652 582.225L469.227 578.625ZM425.352 540.45C425.352 543.75 425.852 546.85 426.852 549.75C427.902 552.6 429.377 555.075 431.277 557.175C433.177 559.275 435.452 560.95 438.102 562.2C440.802 563.4 443.777 564 447.027 564C450.227 564 453.227 563.425 456.027 562.275C458.877 561.125 461.352 559.55 463.452 557.55C465.552 555.5 467.227 553.1 468.477 550.35C469.777 547.6 470.502 544.65 470.652 541.5V540.45C470.652 537.25 470.052 534.2 468.852 531.3C467.652 528.4 465.977 525.85 463.827 523.65C461.727 521.45 459.227 519.725 456.327 518.475C453.477 517.175 450.377 516.525 447.027 516.525C443.777 516.525 440.802 517.175 438.102 518.475C435.452 519.725 433.177 521.45 431.277 523.65C429.377 525.85 427.902 528.4 426.852 531.3C425.852 534.2 425.352 537.25 425.352 540.45ZM520.746 535.05C520.746 532.85 521.846 531.75 524.046 531.75H575.196C576.096 531.75 576.871 532.05 577.521 532.65C578.171 533.2 578.496 534 578.496 535.05V550.275C578.496 551.025 578.196 551.825 577.596 552.675C576.996 553.475 576.196 553.875 575.196 553.875H524.046C521.846 553.875 520.746 552.675 520.746 550.275V535.05ZM603.366 480.075C603.366 479.025 603.641 478.2 604.191 477.6C604.791 477 605.491 476.675 606.291 476.625H678.066C679.216 476.625 680.066 476.95 680.616 477.6C681.216 478.25 681.516 479.125 681.516 480.225V498.825C681.516 499.675 681.216 500.5 680.616 501.3C680.016 502.05 679.141 502.425 677.991 502.425H632.391V525.6H666.066C667.016 525.6 667.816 525.875 668.466 526.425C669.116 526.925 669.441 527.75 669.441 528.9V546.825C669.441 547.675 669.141 548.5 668.541 549.3C667.991 550.05 667.216 550.425 666.216 550.425H632.391V584.775C632.391 586.925 631.241 588 628.941 588H606.066C604.266 587.75 603.366 586.7 603.366 584.85V480.075ZM700.332 479.925C700.332 479.025 700.607 478.25 701.157 477.6C701.707 476.95 702.532 476.625 703.632 476.625H725.682C726.432 476.625 727.232 476.925 728.082 477.525C728.932 478.125 729.357 478.925 729.357 479.925V584.7C729.357 586.9 728.132 588 725.682 588H703.632C701.432 588 700.332 586.9 700.332 584.7V479.925Z" fill="#7301FE"/>
</svg>
